<svg xmlns="http://www.w3.org/2000/svg" xmlns:xlink="http://www.w3.org/1999/xlink" viewBox="0 0 590 590" fill-rule="evenodd" stroke-linejoin="round" stroke-miterlimit="2"><mask id="A"><path d="M0 0h590v590H0z"/><circle cx="295" cy="295" r="295" fill="#fff"/></mask><g mask="url(#A)"><path d="M124.741 79.549h369.883v398.66H124.741z" fill="#186b26" transform="matrix(1.71398 0 0 1.62834 -248.219 -178.165)"/><g fill="#8ba300"><use xlink:href="#C" transform="translate(-282.882 116.71)"/><use xlink:href="#C" transform="translate(123.419 -278.68)"/><use xlink:href="#C" transform="translate(-43.753 205.994)"/><use xlink:href="#C" transform="translate(-235.825 -110.827)"/><use xlink:href="#C" transform="matrix(-.985179 .171527 -.171527 -.985179 1072.29 530.309)"/><use xlink:href="#C"/><use xlink:href="#C" transform="matrix(-.967972 -.251058 .251058 -.967972 335.266 524.748)"/></g><use xlink:href="#D" transform="matrix(-.983149 .182808 -.182808 -.983149 302.136 626.218)"/><use xlink:href="#D" x="215.947" y="278.824"/><use xlink:href="#D" x="-259.931" y="-1.647"/><g fill="#4f2906"><use xlink:href="#E"/><use xlink:href="#E" transform="matrix(-.54501 .83843 -.83843 -.54501 865.893 448.239)"/><use xlink:href="#E" transform="matrix(-.228856 -.97346 .97346 -.228856 -190.544 903.776)"/><use xlink:href="#E" transform="matrix(1 0 0 -.805476 231.227 326.246)"/><use xlink:href="#E" transform="matrix(-.036404 -.999337 .999337 -.036404 -246.341 201.117)"/></g><use xlink:href="#D" x="54.735" y="-96.627"/><g fill="#fff"><path d="M245 120h100v350H245z"/><path d="M120 245h350v100H120z"/></g></g><defs ><path id="C" d="M302.257 316.59c26.474 41.161 82.564 18.736 76.326-29.363-1.002-7.721 17.769-9.057 23.008-.418 4.694 7.742-3.863 22.488 6.045 27.25 10.7 5.144 21.292 3.188 32.728 5.553 14.669 3.032 24.393 7.575 37.099 15.351 10.496 6.423 21.015 20.357 14.682 33.2-4.802 9.738-21.504 7.819-29.2 9.942-9.22 2.542-5.899 14.102-12.498 19.08-15.316 11.555-34.836 13.867-53.131 9.415-16.367-3.983-7.893-30.555-24.698-33.884-2.594-.514-5.319-.791-7.926-.345-17.964 3.077-31.492 16.061-47.615 23.32-8.866 3.993-19.21 3.996-28.633 3.884-24.047-.285-52.55-2.366-69.009-22.446-3.761-4.588-6.159-9.36-7.469-15.157-.831-3.671-1.193-7.439-1.531-11.187-.318-3.525.005-6.258 1.604-9.458 1.102-2.203 2.293-4.415 3.916-6.269 10.831-12.366 29.942 6.487 38.574 9.938 3.215 1.286 6.984 1.308 10.371.589 11.67-2.476 16.785-18.326 21.826-26.386 3.324-5.315 12.001-8.098 15.531-2.609z"/><path id="D" d="M194.637 186.99c13.159 0 32.413 5.177 45.477 5.908 20.535 1.149 48.822-1.028 69.352-.497 25.422.657 50.801 2.513 76.218 3.347 14.279.468 28.572.353 42.858.558 3.191.046 7.679-.27 10.544 1.748 6.122 4.312-6.645 7.998-7.716 8.209-7.788 1.535-15.791 1.804-23.576 3.357-2.688.537-4.861 2.864-3.729 5.84 2.838 7.456 13.432 5.064 18.909 6.006 18.01 3.101 41.44 1.865 58.769 7.688 9.134 3.069 13.738 6.223 20.189 13.349 3.848 4.252-2.901 8.238-6.065 8.959-6.673 1.52-15.898.518-22.532-.359-1.258-.166-6.763-1.97-8.16-1.12-1.757 1.069.871 4.661 1.338 5.153 2.441 2.567 7.813 5.841 8.546 9.885.429 2.368-3.995 5.021-5.329 5.757-3.225 1.783-11.198 5.728-14.966 6.261-42.656 6.043-131.969-11.061-174.701-15.479-42.231-4.366 141.221-9.282 99.265-16.175-12.56-2.064-210.423 5.353-222.813 2.439-20.46-4.813-42.167-7.964-60.686-18.74-6.734-3.919-13.102-1.442-19.473-5.925-1.975-1.39-7.431-5.42-4.819-8.855 4.207-5.534 12.132-4.931 18.119-5.321 18.806-1.223 29.957-2.588 48.797-.514 10.879 1.197 22.528 7.197 33.701 3.285 6.837-2.393 3.294-11.384 4.212-16.052.284-1.446 3.971-2.404 4.937-2.505 8.592-.9 17.18-2.241 25.819-2.241l-12.485-3.966z"/><path id="E" d="M108.015 306.819c-2.479-5.141-40.557-48.96-43.795-53.513-7.239-10.177-18.06-29.727-17.739-43.454.235-10.064 11.212-16.818 18.277-21.24 13.509-8.456 31.811-14.49 47.652-9.296 16.243 5.326 24.087 21.293 35.04 32.848 9.776 10.312 22.908 16.149 36.524 19.338 22.306 5.223 48.596 4.61 69.137-6.453 8.212-4.423 15.075-12.287 24.673-14.062 17.394-3.216 35.859-.593 52.883 2.982 37.743 7.926 77.369 19.215 106.756 45.667 11.323 10.192 23.335 23.526 28.437 38.211 7.691 22.137-9.08 50.977-31.14 58.174-25.004 8.156-51.613 4.557-76.951.473-19.066-3.074-38.425-7.786-57.943-7.956-22.228-.193-38.033 4.377-56.099 17.543-10.94 7.972-20.755 17.444-31.885 25.149-17.258 11.948-42.595 12.132-57.36-3.769-9.96-10.727-14.421-16.676-21.525-29.488-12.416-22.395-13.838-28.119-24.942-51.154z"/></defs></svg>