<?xml version="1.0" encoding="UTF-8" standalone="no"?>
<!DOCTYPE svg PUBLIC "-//W3C//DTD SVG 1.1//EN" "http://www.w3.org/Graphics/SVG/1.1/DTD/svg11.dtd">
<svg width="100%" height="100%" viewBox="0 0 118 192" version="1.1" xmlns="http://www.w3.org/2000/svg" xmlns:xlink="http://www.w3.org/1999/xlink" xml:space="preserve" xmlns:serif="http://www.serif.com/" style="fill-rule:evenodd;clip-rule:evenodd;stroke-linecap:round;stroke-linejoin:round;stroke-miterlimit:1.5;">
    <g transform="matrix(1,0,0,1,-236,-103)">
        <g id="Tenu-B-lower" serif:id="Tenu B lower" transform="matrix(0.715634,0,0,0.715634,236.896,-100.265)">
            <g transform="matrix(0.559855,0,0,0.559855,-37.6375,323.48)">
                <clipPath id="_clip1">
                    <path d="M358.664,188.205C358.664,147.613 325.708,114.657 285.116,114.657L138.019,114.657C97.427,114.657 64.471,147.613 64.471,188.205L64.471,335.302C64.471,375.894 97.427,408.85 138.019,408.85L285.116,408.85C325.708,408.85 358.664,375.894 358.664,335.302L358.664,188.205Z"/>
                </clipPath>
                <g clip-path="url(#_clip1)">
                    <g transform="matrix(0.826222,0,0,0.851917,-43.9387,52.4502)">
                        <rect x="124.741" y="79.549" width="369.883" height="398.66" style="fill:rgb(0,91,29);"/>
                    </g>
                    <g transform="matrix(0.48205,0,0,0.523181,-60.6483,206.723)">
                        <path d="M302.257,316.59C328.731,357.751 384.821,335.326 378.583,287.227C377.581,279.506 396.352,278.17 401.591,286.809C406.285,294.551 397.728,309.297 407.636,314.059C418.336,319.203 428.928,317.247 440.364,319.612C455.033,322.644 464.757,327.187 477.463,334.963C487.959,341.386 498.478,355.32 492.145,368.163C487.343,377.901 470.641,375.982 462.945,378.105C453.725,380.647 457.046,392.207 450.447,397.185C435.131,408.74 415.611,411.052 397.316,406.6C380.949,402.617 389.423,376.045 372.618,372.716C370.024,372.202 367.299,371.925 364.692,372.371C346.728,375.448 333.2,388.432 317.077,395.691C308.211,399.684 297.867,399.687 288.444,399.575C264.397,399.29 235.894,397.209 219.435,377.129C215.674,372.541 213.276,367.769 211.966,361.972C211.135,358.301 210.773,354.533 210.435,350.785C210.117,347.26 210.44,344.527 212.039,341.327C213.141,339.124 214.332,336.912 215.955,335.058C226.786,322.692 245.897,341.545 254.529,344.996C257.744,346.282 261.513,346.304 264.9,345.585C276.57,343.109 281.685,327.259 286.726,319.199C290.05,313.884 298.727,311.101 302.257,316.59Z" style="fill:rgb(139,163,0);"/>
                    </g>
                    <g transform="matrix(0.48205,0,0,0.523181,135.209,-0.137284)">
                        <path d="M302.257,316.59C328.731,357.751 384.821,335.326 378.583,287.227C377.581,279.506 396.352,278.17 401.591,286.809C406.285,294.551 397.728,309.297 407.636,314.059C418.336,319.203 428.928,317.247 440.364,319.612C455.033,322.644 464.757,327.187 477.463,334.963C487.959,341.386 498.478,355.32 492.145,368.163C487.343,377.901 470.641,375.982 462.945,378.105C453.725,380.647 457.046,392.207 450.447,397.185C435.131,408.74 415.611,411.052 397.316,406.6C380.949,402.617 389.423,376.045 372.618,372.716C370.024,372.202 367.299,371.925 364.692,372.371C346.728,375.448 333.2,388.432 317.077,395.691C308.211,399.684 297.867,399.687 288.444,399.575C264.397,399.29 235.894,397.209 219.435,377.129C215.674,372.541 213.276,367.769 211.966,361.972C211.135,358.301 210.773,354.533 210.435,350.785C210.117,347.26 210.44,344.527 212.039,341.327C213.141,339.124 214.332,336.912 215.955,335.058C226.786,322.692 245.897,341.545 254.529,344.996C257.744,346.282 261.513,346.304 264.9,345.585C276.57,343.109 281.685,327.259 286.726,319.199C290.05,313.884 298.727,311.101 302.257,316.59Z" style="fill:rgb(139,163,0);"/>
                    </g>
                    <g transform="matrix(0.48205,0,0,0.523181,54.6239,253.435)">
                        <path d="M302.257,316.59C328.731,357.751 384.821,335.326 378.583,287.227C377.581,279.506 396.352,278.17 401.591,286.809C406.285,294.551 397.728,309.297 407.636,314.059C418.336,319.203 428.928,317.247 440.364,319.612C455.033,322.644 464.757,327.187 477.463,334.963C487.959,341.386 498.478,355.32 492.145,368.163C487.343,377.901 470.641,375.982 462.945,378.105C453.725,380.647 457.046,392.207 450.447,397.185C435.131,408.74 415.611,411.052 397.316,406.6C380.949,402.617 389.423,376.045 372.618,372.716C370.024,372.202 367.299,371.925 364.692,372.371C346.728,375.448 333.2,388.432 317.077,395.691C308.211,399.684 297.867,399.687 288.444,399.575C264.397,399.29 235.894,397.209 219.435,377.129C215.674,372.541 213.276,367.769 211.966,361.972C211.135,358.301 210.773,354.533 210.435,350.785C210.117,347.26 210.44,344.527 212.039,341.327C213.141,339.124 214.332,336.912 215.955,335.058C226.786,322.692 245.897,341.545 254.529,344.996C257.744,346.282 261.513,346.304 264.9,345.585C276.57,343.109 281.685,327.259 286.726,319.199C290.05,313.884 298.727,311.101 302.257,316.59Z" style="fill:rgb(139,163,0);"/>
                    </g>
                    <g transform="matrix(0.48205,0,0,0.523181,-37.9644,87.6804)">
                        <path d="M302.257,316.59C328.731,357.751 384.821,335.326 378.583,287.227C377.581,279.506 396.352,278.17 401.591,286.809C406.285,294.551 397.728,309.297 407.636,314.059C418.336,319.203 428.928,317.247 440.364,319.612C455.033,322.644 464.757,327.187 477.463,334.963C487.959,341.386 498.478,355.32 492.145,368.163C487.343,377.901 470.641,375.982 462.945,378.105C453.725,380.647 457.046,392.207 450.447,397.185C435.131,408.74 415.611,411.052 397.316,406.6C380.949,402.617 389.423,376.045 372.618,372.716C370.024,372.202 367.299,371.925 364.692,372.371C346.728,375.448 333.2,388.432 317.077,395.691C308.211,399.684 297.867,399.687 288.444,399.575C264.397,399.29 235.894,397.209 219.435,377.129C215.674,372.541 213.276,367.769 211.966,361.972C211.135,358.301 210.773,354.533 210.435,350.785C210.117,347.26 210.44,344.527 212.039,341.327C213.141,339.124 214.332,336.912 215.955,335.058C226.786,322.692 245.897,341.545 254.529,344.996C257.744,346.282 261.513,346.304 264.9,345.585C276.57,343.109 281.685,327.259 286.726,319.199C290.05,313.884 298.727,311.101 302.257,316.59Z" style="fill:rgb(139,163,0);"/>
                    </g>
                    <g transform="matrix(-0.474906,0.0897398,-0.0826847,-0.515427,592.614,423.11)">
                        <path d="M302.257,316.59C328.731,357.751 384.821,335.326 378.583,287.227C377.581,279.506 396.352,278.17 401.591,286.809C406.285,294.551 397.728,309.297 407.636,314.059C418.336,319.203 428.928,317.247 440.364,319.612C455.033,322.644 464.757,327.187 477.463,334.963C487.959,341.386 498.478,355.32 492.145,368.163C487.343,377.901 470.641,375.982 462.945,378.105C453.725,380.647 457.046,392.207 450.447,397.185C435.131,408.74 415.611,411.052 397.316,406.6C380.949,402.617 389.423,376.045 372.618,372.716C370.024,372.202 367.299,371.925 364.692,372.371C346.728,375.448 333.2,388.432 317.077,395.691C308.211,399.684 297.867,399.687 288.444,399.575C264.397,399.29 235.894,397.209 219.435,377.129C215.674,372.541 213.276,367.769 211.966,361.972C211.135,358.301 210.773,354.533 210.435,350.785C210.117,347.26 210.44,344.527 212.039,341.327C213.141,339.124 214.332,336.912 215.955,335.058C226.786,322.692 245.897,341.545 254.529,344.996C257.744,346.282 261.513,346.304 264.9,345.585C276.57,343.109 281.685,327.259 286.726,319.199C290.05,313.884 298.727,311.101 302.257,316.59Z" style="fill:rgb(139,163,0);"/>
                    </g>
                    <g transform="matrix(0.48205,0,0,0.523181,75.7152,145.663)">
                        <path d="M302.257,316.59C328.731,357.751 384.821,335.326 378.583,287.227C377.581,279.506 396.352,278.17 401.591,286.809C406.285,294.551 397.728,309.297 407.636,314.059C418.336,319.203 428.928,317.247 440.364,319.612C455.033,322.644 464.757,327.187 477.463,334.963C487.959,341.386 498.478,355.32 492.145,368.163C487.343,377.901 470.641,375.982 462.945,378.105C453.725,380.647 457.046,392.207 450.447,397.185C435.131,408.74 415.611,411.052 397.316,406.6C380.949,402.617 389.423,376.045 372.618,372.716C370.024,372.202 367.299,371.925 364.692,372.371C346.728,375.448 333.2,388.432 317.077,395.691C308.211,399.684 297.867,399.687 288.444,399.575C264.397,399.29 235.894,397.209 219.435,377.129C215.674,372.541 213.276,367.769 211.966,361.972C211.135,358.301 210.773,354.533 210.435,350.785C210.117,347.26 210.44,344.527 212.039,341.327C213.141,339.124 214.332,336.912 215.955,335.058C226.786,322.692 245.897,341.545 254.529,344.996C257.744,346.282 261.513,346.304 264.9,345.585C276.57,343.109 281.685,327.259 286.726,319.199C290.05,313.884 298.727,311.101 302.257,316.59Z" style="fill:rgb(139,163,0);"/>
                    </g>
                    <g transform="matrix(-0.466611,-0.131349,0.121023,-0.506425,237.33,420.201)">
                        <path d="M302.257,316.59C328.731,357.751 384.821,335.326 378.583,287.227C377.581,279.506 396.352,278.17 401.591,286.809C406.285,294.551 397.728,309.297 407.636,314.059C418.336,319.203 428.928,317.247 440.364,319.612C455.033,322.644 464.757,327.187 477.463,334.963C487.959,341.386 498.478,355.32 492.145,368.163C487.343,377.901 470.641,375.982 462.945,378.105C453.725,380.647 457.046,392.207 450.447,397.185C435.131,408.74 415.611,411.052 397.316,406.6C380.949,402.617 389.423,376.045 372.618,372.716C370.024,372.202 367.299,371.925 364.692,372.371C346.728,375.448 333.2,388.432 317.077,395.691C308.211,399.684 297.867,399.687 288.444,399.575C264.397,399.29 235.894,397.209 219.435,377.129C215.674,372.541 213.276,367.769 211.966,361.972C211.135,358.301 210.773,354.533 210.435,350.785C210.117,347.26 210.44,344.527 212.039,341.327C213.141,339.124 214.332,336.912 215.955,335.058C226.786,322.692 245.897,341.545 254.529,344.996C257.744,346.282 261.513,346.304 264.9,345.585C276.57,343.109 281.685,327.259 286.726,319.199C290.05,313.884 298.727,311.101 302.257,316.59Z" style="fill:rgb(139,163,0);"/>
                    </g>
                    <g transform="matrix(-0.473927,0.0956418,-0.0881228,-0.514365,221.36,473.288)">
                        <path d="M194.637,186.99C207.796,186.99 227.05,192.167 240.114,192.898C260.649,194.047 288.936,191.87 309.466,192.401C334.888,193.058 360.267,194.914 385.684,195.748C399.963,196.216 414.256,196.101 428.542,196.306C431.733,196.352 436.221,196.036 439.086,198.054C445.208,202.366 432.441,206.052 431.37,206.263C423.582,207.798 415.579,208.067 407.794,209.62C405.106,210.157 402.933,212.484 404.065,215.46C406.903,222.916 417.497,220.524 422.974,221.466C440.984,224.567 464.414,223.331 481.743,229.154C490.877,232.223 495.481,235.377 501.932,242.503C505.78,246.755 499.031,250.741 495.867,251.462C489.194,252.982 479.969,251.98 473.335,251.103C472.077,250.937 466.572,249.133 465.175,249.983C463.418,251.052 466.046,254.644 466.513,255.136C468.954,257.703 474.326,260.977 475.059,265.021C475.488,267.389 471.064,270.042 469.73,270.778C466.505,272.561 458.532,276.506 454.764,277.039C412.108,283.082 322.795,265.978 280.063,261.56C237.832,257.194 421.284,252.278 379.328,245.385C366.768,243.321 168.905,250.738 156.515,247.824C136.055,243.011 114.348,239.86 95.829,229.084C89.095,225.165 82.727,227.642 76.356,223.159C74.381,221.769 68.925,217.739 71.537,214.304C75.744,208.77 83.669,209.373 89.656,208.983C108.462,207.76 119.613,206.395 138.453,208.469C149.332,209.666 160.981,215.666 172.154,211.754C178.991,209.361 175.448,200.37 176.366,195.702C176.65,194.256 180.337,193.298 181.303,193.197C189.895,192.297 198.483,190.956 207.122,190.956L194.637,186.99Z"/>
                    </g>
                    <g transform="matrix(0.48205,0,0,0.523181,179.813,269.075)">
                        <path d="M194.637,186.99C207.796,186.99 227.05,192.167 240.114,192.898C260.649,194.047 288.936,191.87 309.466,192.401C334.888,193.058 360.267,194.914 385.684,195.748C399.963,196.216 414.256,196.101 428.542,196.306C431.733,196.352 436.221,196.036 439.086,198.054C445.208,202.366 432.441,206.052 431.37,206.263C423.582,207.798 415.579,208.067 407.794,209.62C405.106,210.157 402.933,212.484 404.065,215.46C406.903,222.916 417.497,220.524 422.974,221.466C440.984,224.567 464.414,223.331 481.743,229.154C490.877,232.223 495.481,235.377 501.932,242.503C505.78,246.755 499.031,250.741 495.867,251.462C489.194,252.982 479.969,251.98 473.335,251.103C472.077,250.937 466.572,249.133 465.175,249.983C463.418,251.052 466.046,254.644 466.513,255.136C468.954,257.703 474.326,260.977 475.059,265.021C475.488,267.389 471.064,270.042 469.73,270.778C466.505,272.561 458.532,276.506 454.764,277.039C412.108,283.082 322.795,265.978 280.063,261.56C237.832,257.194 421.284,252.278 379.328,245.385C366.768,243.321 168.905,250.738 156.515,247.824C136.055,243.011 114.348,239.86 95.829,229.084C89.095,225.165 82.727,227.642 76.356,223.159C74.381,221.769 68.925,217.739 71.537,214.304C75.744,208.77 83.669,209.373 89.656,208.983C108.462,207.76 119.613,206.395 138.453,208.469C149.332,209.666 160.981,215.666 172.154,211.754C178.991,209.361 175.448,200.37 176.366,195.702C176.65,194.256 180.337,193.298 181.303,193.197C189.895,192.297 198.483,190.956 207.122,190.956L194.637,186.99Z"/>
                    </g>
                    <g transform="matrix(0.48205,0,0,0.523181,-49.5844,144.801)">
                        <path d="M194.637,186.99C207.796,186.99 227.05,192.167 240.114,192.898C260.649,194.047 288.936,191.87 309.466,192.401C334.888,193.058 360.267,194.914 385.684,195.748C399.963,196.216 414.256,196.101 428.542,196.306C431.733,196.352 436.221,196.036 439.086,198.054C445.208,202.366 432.441,206.052 431.37,206.263C423.582,207.798 415.579,208.067 407.794,209.62C405.106,210.157 402.933,212.484 404.065,215.46C406.903,222.916 417.497,220.524 422.974,221.466C440.984,224.567 464.414,223.331 481.743,229.154C490.877,232.223 495.481,235.377 501.932,242.503C505.78,246.755 499.031,250.741 495.867,251.462C489.194,252.982 479.969,251.98 473.335,251.103C472.077,250.937 466.572,249.133 465.175,249.983C463.418,251.052 466.046,254.644 466.513,255.136C468.954,257.703 474.326,260.977 475.059,265.021C475.488,267.389 471.064,270.042 469.73,270.778C466.505,272.561 458.532,276.506 454.764,277.039C412.108,283.082 322.795,265.978 280.063,261.56C237.832,257.194 421.284,252.278 379.328,245.385C366.768,243.321 168.905,250.738 156.515,247.824C136.055,243.011 114.348,239.86 95.829,229.084C89.095,225.165 82.727,227.642 76.356,223.159C74.381,221.769 68.925,217.739 71.537,214.304C75.744,208.77 83.669,209.373 89.656,208.983C108.462,207.76 119.613,206.395 138.453,208.469C149.332,209.666 160.981,215.666 172.154,211.754C178.991,209.361 175.448,200.37 176.366,195.702C176.65,194.256 180.337,193.298 181.303,193.197C189.895,192.297 198.483,190.956 207.122,190.956L194.637,186.99Z"/>
                    </g>
                    <g transform="matrix(0.48205,0,0,0.523181,75.7152,145.663)">
                        <path d="M108.015,306.819C105.536,301.678 67.458,257.859 64.22,253.306C56.981,243.129 46.16,223.579 46.481,209.852C46.716,199.788 57.693,193.034 64.758,188.612C78.267,180.156 96.569,174.122 112.41,179.316C128.653,184.642 136.497,200.609 147.45,212.164C157.226,222.476 170.358,228.313 183.974,231.502C206.28,236.725 232.57,236.112 253.111,225.049C261.323,220.626 268.186,212.762 277.784,210.987C295.178,207.771 313.643,210.394 330.667,213.969C368.41,221.895 408.036,233.184 437.423,259.636C448.746,269.828 460.758,283.162 465.86,297.847C473.551,319.984 456.78,348.824 434.72,356.021C409.716,364.177 383.107,360.578 357.769,356.494C338.703,353.42 319.344,348.708 299.826,348.538C277.598,348.345 261.793,352.915 243.727,366.081C232.787,374.053 222.972,383.525 211.842,391.23C194.584,403.178 169.247,403.362 154.482,387.461C144.522,376.734 140.061,370.785 132.957,357.973C120.541,335.578 119.119,329.854 108.015,306.819Z" style="fill:rgb(79,41,6);"/>
                    </g>
                    <g transform="matrix(-0.262722,0.438651,-0.404165,-0.285139,493.119,380.173)">
                        <path d="M108.015,306.819C105.536,301.678 67.458,257.859 64.22,253.306C56.981,243.129 46.16,223.579 46.481,209.852C46.716,199.788 57.693,193.034 64.758,188.612C78.267,180.156 96.569,174.122 112.41,179.316C128.653,184.642 136.497,200.609 147.45,212.164C157.226,222.476 170.358,228.313 183.974,231.502C206.28,236.725 232.57,236.112 253.111,225.049C261.323,220.626 268.186,212.762 277.784,210.987C295.178,207.771 313.643,210.394 330.667,213.969C368.41,221.895 408.036,233.184 437.423,259.636C448.746,269.828 460.758,283.162 465.86,297.847C473.551,319.984 456.78,348.824 434.72,356.021C409.716,364.177 383.107,360.578 357.769,356.494C338.703,353.42 319.344,348.708 299.826,348.538C277.598,348.345 261.793,352.915 243.727,366.081C232.787,374.053 222.972,383.525 211.842,391.23C194.584,403.178 169.247,403.362 154.482,387.461C144.522,376.734 140.061,370.785 132.957,357.973C120.541,335.578 119.119,329.854 108.015,306.819Z" style="fill:rgb(79,41,6);"/>
                    </g>
                    <g transform="matrix(-0.11032,-0.509296,0.469257,-0.119733,-16.1367,618.501)">
                        <path d="M108.015,306.819C105.536,301.678 67.458,257.859 64.22,253.306C56.981,243.129 46.16,223.579 46.481,209.852C46.716,199.788 57.693,193.034 64.758,188.612C78.267,180.156 96.569,174.122 112.41,179.316C128.653,184.642 136.497,200.609 147.45,212.164C157.226,222.476 170.358,228.313 183.974,231.502C206.28,236.725 232.57,236.112 253.111,225.049C261.323,220.626 268.186,212.762 277.784,210.987C295.178,207.771 313.643,210.394 330.667,213.969C368.41,221.895 408.036,233.184 437.423,259.636C448.746,269.828 460.758,283.162 465.86,297.847C473.551,319.984 456.78,348.824 434.72,356.021C409.716,364.177 383.107,360.578 357.769,356.494C338.703,353.42 319.344,348.708 299.826,348.538C277.598,348.345 261.793,352.915 243.727,366.081C232.787,374.053 222.972,383.525 211.842,391.23C194.584,403.178 169.247,403.362 154.482,387.461C144.522,376.734 140.061,370.785 132.957,357.973C120.541,335.578 119.119,329.854 108.015,306.819Z" style="fill:rgb(79,41,6);"/>
                    </g>
                    <g transform="matrix(0.48205,0,0,-0.42141,187.178,316.349)">
                        <path d="M108.015,306.819C105.536,301.678 67.458,257.859 64.22,253.306C56.981,243.129 46.16,223.579 46.481,209.852C46.716,199.788 57.693,193.034 64.758,188.612C78.267,180.156 96.569,174.122 112.41,179.316C128.653,184.642 136.497,200.609 147.45,212.164C157.226,222.476 170.358,228.313 183.974,231.502C206.28,236.725 232.57,236.112 253.111,225.049C261.323,220.626 268.186,212.762 277.784,210.987C295.178,207.771 313.643,210.394 330.667,213.969C368.41,221.895 408.036,233.184 437.423,259.636C448.746,269.828 460.758,283.162 465.86,297.847C473.551,319.984 456.78,348.824 434.72,356.021C409.716,364.177 383.107,360.578 357.769,356.494C338.703,353.42 319.344,348.708 299.826,348.538C277.598,348.345 261.793,352.915 243.727,366.081C232.787,374.053 222.972,383.525 211.842,391.23C194.584,403.178 169.247,403.362 154.482,387.461C144.522,376.734 140.061,370.785 132.957,357.973C120.541,335.578 119.119,329.854 108.015,306.819Z" style="fill:rgb(79,41,6);"/>
                    </g>
                    <g transform="matrix(-0.0175486,-0.522834,0.481731,-0.019046,-43.0337,250.883)">
                        <path d="M108.015,306.819C105.536,301.678 67.458,257.859 64.22,253.306C56.981,243.129 46.16,223.579 46.481,209.852C46.716,199.788 57.693,193.034 64.758,188.612C78.267,180.156 96.569,174.122 112.41,179.316C128.653,184.642 136.497,200.609 147.45,212.164C157.226,222.476 170.358,228.313 183.974,231.502C206.28,236.725 232.57,236.112 253.111,225.049C261.323,220.626 268.186,212.762 277.784,210.987C295.178,207.771 313.643,210.394 330.667,213.969C368.41,221.895 408.036,233.184 437.423,259.636C448.746,269.828 460.758,283.162 465.86,297.847C473.551,319.984 456.78,348.824 434.72,356.021C409.716,364.177 383.107,360.578 357.769,356.494C338.703,353.42 319.344,348.708 299.826,348.538C277.598,348.345 261.793,352.915 243.727,366.081C232.787,374.053 222.972,383.525 211.842,391.23C194.584,403.178 169.247,403.362 154.482,387.461C144.522,376.734 140.061,370.785 132.957,357.973C120.541,335.578 119.119,329.854 108.015,306.819Z" style="fill:rgb(79,41,6);"/>
                    </g>
                    <g transform="matrix(0.48205,0,0,0.523181,102.1,95.1096)">
                        <path d="M194.637,186.99C207.796,186.99 227.05,192.167 240.114,192.898C260.649,194.047 288.936,191.87 309.466,192.401C334.888,193.058 360.267,194.914 385.684,195.748C399.963,196.216 414.256,196.101 428.542,196.306C431.733,196.352 436.221,196.036 439.086,198.054C445.208,202.366 432.441,206.052 431.37,206.263C423.582,207.798 415.579,208.067 407.794,209.62C405.106,210.157 402.933,212.484 404.065,215.46C406.903,222.916 417.497,220.524 422.974,221.466C440.984,224.567 464.414,223.331 481.743,229.154C490.877,232.223 495.481,235.377 501.932,242.503C505.78,246.755 499.031,250.741 495.867,251.462C489.194,252.982 479.969,251.98 473.335,251.103C472.077,250.937 466.572,249.133 465.175,249.983C463.418,251.052 466.046,254.644 466.513,255.136C468.954,257.703 474.326,260.977 475.059,265.021C475.488,267.389 471.064,270.042 469.73,270.778C466.505,272.561 458.532,276.506 454.764,277.039C412.108,283.082 322.795,265.978 280.063,261.56C237.832,257.194 421.284,252.278 379.328,245.385C366.768,243.321 168.905,250.738 156.515,247.824C136.055,243.011 114.348,239.86 95.829,229.084C89.095,225.165 82.727,227.642 76.356,223.159C74.381,221.769 68.925,217.739 71.537,214.304C75.744,208.77 83.669,209.373 89.656,208.983C108.462,207.76 119.613,206.395 138.453,208.469C149.332,209.666 160.981,215.666 172.154,211.754C178.991,209.361 175.448,200.37 176.366,195.702C176.65,194.256 180.337,193.298 181.303,193.197C189.895,192.297 198.483,190.956 207.122,190.956L194.637,186.99Z"/>
                    </g>
                </g>
            </g>
            <g transform="matrix(-1.10488,1.35309e-16,-1.25973e-16,-1.02865,407.214,688.723)">
                <path d="M295.033,201.558L317.439,265.737L272.626,265.737L295.033,201.558Z" style="fill:rgb(152,189,98);stroke:rgb(122,54,2);stroke-width:2.73px;"/>
            </g>
        </g>
        <g id="head">
            <g id="head1" serif:id="head" transform="matrix(1.49415,0,0,1.49415,-103.346,-60.2282)">
                <clipPath id="_clip2">
                    <path d="M305.864,178.604C305.864,167.719 297.027,158.882 286.142,158.882L246.699,158.882C235.814,158.882 226.977,167.719 226.977,178.604L226.977,218.047C226.977,228.932 235.814,237.769 246.699,237.769L286.142,237.769C297.027,237.769 305.864,228.932 305.864,218.047L305.864,178.604Z"/>
                </clipPath>
                <g clip-path="url(#_clip2)">
                    <circle cx="266.788" cy="150.977" r="29.643" style="fill:white;"/>
                </g>
            </g>
            <g id="head2" serif:id="head" transform="matrix(1.39454,0,0,1.39454,-76.7709,-45.1893)">
                <circle cx="266.788" cy="150.977" r="29.643"/>
            </g>
        </g>
        <g id="Tenu-A-upper" serif:id="Tenu A upper">
            <g transform="matrix(1,0,0,1,-6,10)">
                <path d="M276.42,147.117C269.238,139.531 273.6,126.307 278.579,120.947C285.413,113.59 293.983,111.85 303.039,112.219C323.519,113.053 344.612,141.967 340.176,147.783C335.739,153.599 283.238,154.318 276.42,147.117Z" style="fill:rgb(0,91,29);stroke:black;stroke-width:2.08px;"/>
            </g>
            <g transform="matrix(1.21937,0,0,0.904536,-61.0448,14.8178)">
                <ellipse cx="274.781" cy="140.309" rx="2.422" ry="6.529" style="fill:rgb(179,179,179);"/>
            </g>
        </g>
    </g>
</svg>
